<svg width="32" height="32" viewBox="0 0 32 32" fill="none" xmlns="http://www.w3.org/2000/svg">
<path d="M7.51888 19.1218H5.74492L5.20224 17.8129H2.24575L1.75132 19.1218H0.0065918L2.67213 12.5108H4.58174L7.51888 19.1218ZM3.65122 14.0905L2.68192 16.6592H4.71757L3.65122 14.0905ZM13.9628 12.5108H15.3974V19.1218H13.7494V14.9924L11.9658 17.0666H11.7139L9.93044 14.9924V19.1217H8.28239V12.5108H9.71698L11.8397 14.9632L13.9628 12.5108ZM19.5732 12.5108C21.9867 12.5108 23.2272 14.0131 23.2272 15.8258C23.2272 17.7256 22.0254 19.1218 19.3889 19.1218H16.6553V12.5108H19.5732ZM18.3032 17.9101H19.379C21.0366 17.9101 21.531 16.7855 21.531 15.816C21.531 14.6817 20.9202 13.7223 19.3596 13.7223H18.3032V17.9101H18.3032ZM26.506 14.0783L24.428 12H31.9928V19.5651L29.9149 17.487V14.0783H26.506ZM26.5035 14.4948L24.3641 16.6341V19.6288H27.3584L29.4977 17.4895H26.5035V14.4948Z" fill="#2C2C2C"/>
</svg>
