<svg width="24" height="24" viewBox="0 0 24 24" fill="none" xmlns="http://www.w3.org/2000/svg">
<path d="M4.87342 13.597C4.87342 14.2592 5.01872 14.7676 5.20876 15.0752C5.45787 15.4781 5.82939 15.6491 6.20818 15.6491C6.69666 15.6491 7.14359 15.5279 8.00483 14.3367C8.69499 13.3819 9.50784 12.0418 10.0549 11.2016L10.9813 9.77822C11.6248 8.7897 12.3697 7.69083 13.2237 6.94597C13.9211 6.33798 14.673 6.00024 15.43 6.00024C16.7008 6.00024 17.9112 6.73668 18.8376 8.11786C19.8515 9.63046 20.3436 11.5358 20.3436 13.5019C20.3436 14.6708 20.1133 15.5297 19.7212 16.2082C19.3425 16.8644 18.6042 17.52 17.3624 17.52V15.6488C18.4257 15.6488 18.691 14.6717 18.691 13.5535C18.691 11.9601 18.3195 10.1917 17.5011 8.92817C16.9203 8.03191 16.1676 7.48429 15.3395 7.48429C14.4438 7.48429 13.7231 8.15992 12.9131 9.3642C12.4824 10.0042 12.0403 10.784 11.5439 11.6639L10.9975 12.632C9.89992 14.5786 9.62183 15.0217 9.07297 15.7531C8.11104 17.0341 7.28954 17.5197 6.20818 17.5197C4.92529 17.5197 4.1141 16.9642 3.61167 16.1271C3.20157 15.445 3.00012 14.5499 3.00012 13.53L4.87342 13.597Z" fill="white"/>
<path d="M4.47717 8.2497C5.33602 6.92583 6.57546 6.00001 7.99703 6.00001C8.82028 6.00001 9.63888 6.24367 10.4934 6.94153C11.4282 7.70433 12.4246 8.96114 13.6676 11.0316L14.1133 11.7744C15.1893 13.5669 15.8014 14.4891 16.1597 14.924C16.6205 15.4824 16.9432 15.649 17.3624 15.649C18.4257 15.649 18.691 14.6718 18.691 13.5536L20.3436 13.5018C20.3436 14.6707 20.1132 15.5295 19.7212 16.208C19.3425 16.8642 18.6042 17.5199 17.3624 17.5199C16.5903 17.5199 15.9064 17.3522 15.1501 16.6386C14.5689 16.091 13.8889 15.1182 13.366 14.2437L11.8105 11.6454C11.0302 10.3414 10.314 9.3692 9.8999 8.92888C9.45413 8.45536 8.88116 7.88362 7.96681 7.88362C7.22682 7.88362 6.59834 8.40291 6.07245 9.19724L4.47717 8.2497Z" fill="white"/>
<path d="M7.96672 7.88361C7.22672 7.88361 6.59825 8.4029 6.07235 9.19723C5.32865 10.3196 4.87366 11.9915 4.87366 13.597C4.87366 14.2593 5.01896 14.7677 5.209 15.0752L3.61155 16.1271C3.20145 15.445 3 14.5499 3 13.5301C3 11.6755 3.50904 9.74245 4.47708 8.24969C5.33592 6.92582 6.57536 6 7.99694 6L7.96672 7.88361Z" fill="white"/>
</svg>
