<svg width="24" height="25" viewBox="0 0 24 25" fill="none" xmlns="http://www.w3.org/2000/svg">
<path d="M23.8325 20.6124C23.8325 20.87 23.6434 21.0428 23.4196 21.0428V21.0412C23.1894 21.0428 23.0038 20.8699 23.0038 20.6125C23.0038 20.3551 23.1894 20.1828 23.4196 20.1828C23.6435 20.1827 23.8325 20.3551 23.8325 20.6124ZM24 20.6124C24 20.259 23.7255 20.0539 23.4196 20.0539C23.1115 20.0539 22.837 20.259 22.837 20.6124C22.837 20.9656 23.1116 21.1716 23.4196 21.1716C23.7255 21.1716 24 20.9656 24 20.6124ZM23.3233 20.6597H23.3854L23.5294 20.9126H23.6875L23.528 20.649C23.6104 20.6432 23.6782 20.604 23.6782 20.493C23.6782 20.3551 23.5831 20.3108 23.4222 20.3108H23.1892V20.9126H23.3231L23.3233 20.6597ZM23.3233 20.5578V20.413H23.4164C23.4671 20.413 23.5361 20.4171 23.5361 20.4789C23.5361 20.5461 23.5004 20.5578 23.4407 20.5578H23.3233ZM20.0911 17.5339L20.8148 19.5137H19.345L20.0911 17.5339ZM19.3161 16.7631L17.6483 20.9886H18.8259L19.0897 20.2419H21.0634L21.3131 20.9886H22.5915L20.9113 16.7625L19.3161 16.7631ZM15.9678 20.9902H17.1626V16.7618L15.9676 16.7615L15.9678 20.9902ZM7.67323 16.7615L6.67638 20.1129L5.72146 16.7618L4.43228 16.7615L5.7961 20.9902H7.5174L8.89221 16.7615H7.67323ZM12.5028 17.6823H13.0164C13.7613 17.6823 14.2432 18.0167 14.2432 18.8847C14.2432 19.7529 13.7613 20.0874 13.0164 20.0874H12.5028V17.6823ZM11.318 16.7615V20.9902H13.255C14.287 20.9902 14.624 20.8187 14.9884 20.4339C15.2458 20.1637 15.4123 19.5706 15.4123 18.9224C15.4123 18.3278 15.2714 17.7978 15.0258 17.4676C14.5833 16.877 13.9458 16.7615 12.9943 16.7615H11.318ZM0 16.7556V20.9902H1.20492V17.7749L2.13853 17.7751C2.44766 17.7751 2.66803 17.8522 2.81689 18.0112C3.0057 18.2123 3.0828 18.5369 3.0828 19.1308V20.9902H4.25036V18.6506C4.25036 16.9808 3.18605 16.7556 2.14468 16.7556H0ZM9.39507 16.7615L9.39555 20.9902H10.5898V16.7615H9.39507Z" fill="#2C2C2C"/>
<path d="M3.21114 8.34166C3.21114 8.34166 4.74786 6.07434 7.81618 5.83977V5.01719C4.41762 5.29013 1.47461 8.16855 1.47461 8.16855C1.47461 8.16855 3.14148 12.9871 7.81618 13.4284V12.5541C4.38567 12.1225 3.21114 8.34166 3.21114 8.34166ZM7.81618 10.8152V11.616C5.22347 11.1537 4.5038 8.45863 4.5038 8.45863C4.5038 8.45863 5.74867 7.07958 7.81618 6.85594V7.73459C7.81461 7.73459 7.81351 7.73411 7.81222 7.73411C6.72708 7.60389 5.87937 8.6176 5.87937 8.6176C5.87937 8.6176 6.3545 10.3241 7.81618 10.8152ZM7.81618 3.5V5.01719C7.91594 5.00954 8.01571 5.00306 8.11602 4.99964C11.9798 4.86942 14.4973 8.16855 14.4973 8.16855C14.4973 8.16855 11.6059 11.6845 8.59348 11.6845C8.3174 11.6845 8.05894 11.6589 7.81618 11.6159V12.5541C8.03089 12.5816 8.24713 12.5956 8.4636 12.5958C11.2668 12.5958 13.2941 11.1642 15.257 9.46982C15.5825 9.73047 16.9149 10.3646 17.1888 10.6421C15.3224 12.2048 10.9726 13.4644 8.50656 13.4644C8.26885 13.4644 8.04057 13.45 7.81618 13.4284V14.7467H18.4711V3.5H7.81618ZM7.81618 6.85594V5.83977C7.91492 5.83287 8.01441 5.82762 8.11602 5.82441C10.8945 5.73714 12.7173 8.21205 12.7173 8.21205C12.7173 8.21205 10.7485 10.9464 8.63746 10.9464C8.33365 10.9464 8.06126 10.8976 7.81611 10.8151V7.73452C8.89777 7.86522 9.11547 8.34302 9.76576 9.42707L11.2121 8.20754C11.2121 8.20754 10.1564 6.82289 8.37661 6.82289C8.18308 6.82282 7.99796 6.83648 7.81618 6.85594Z" fill="#2C2C2C"/>
</svg>
