<svg width="24" height="24" viewBox="0 0 24 24" fill="none" xmlns="http://www.w3.org/2000/svg">
<path d="M12.4936 20.9124L14.8697 7.54868C17.1347 7.54868 17.8491 7.79704 17.9522 8.81078C17.9522 8.81078 19.4716 8.24426 20.2379 7.09368C17.2475 5.708 14.2429 5.64551 14.2429 5.64551L12.4896 7.78096L12.4936 7.7807L10.7403 5.64518C10.7403 5.64518 7.73559 5.70774 4.74561 7.09341C5.51125 8.244 7.03123 8.81051 7.03123 8.81051C7.13498 7.7967 7.84852 7.54834 10.0982 7.54673L12.4936 20.9124Z" fill="#2C2C2C"/>
<path d="M12.4925 5.0287C14.9098 5.01021 17.6767 5.40265 20.5091 6.63715C20.8877 5.95577 20.985 5.65462 20.985 5.65462C17.8887 4.42963 14.9891 4.0104 12.4922 3.99989C9.99537 4.0104 7.09588 4.4297 4 5.65462C4 5.65462 4.13811 6.02556 4.47556 6.63715C7.30747 5.40265 10.0748 5.01021 12.4922 5.0287H12.4925Z" fill="#2C2C2C"/>
</svg>
