<svg width="977" height="135" viewBox="0 0 977 135" fill="none" xmlns="http://www.w3.org/2000/svg">
<path d="M0.746216 72.2402C55.7472 72.2402 53.4869 129.541 95.6794 129.541C137.872 129.541 155.954 72.2402 191.366 72.2402C226.778 72.2402 244.86 117.812 274.998 117.812C305.135 117.812 304.382 111.459 352.602 111.459C400.822 111.459 397.88 80.0188 437.059 80.0188C476.237 80.0188 488.221 44.5079 526.646 44.5079C565.071 44.5079 560.551 1.50269 610.277 1.50269C660.004 1.50269 665.278 133.451 693.909 133.451C722.54 133.451 730.074 35.7114 782.061 35.7114C834.048 35.7114 818.98 40.1097 872.474 40.1097C925.968 40.1097 907.885 8.83312 976.448 8.83312" stroke="#FFC01E" stroke-width="1.66528"/>
</svg>
