<svg width="976" height="183" viewBox="0 0 976 183" fill="none" xmlns="http://www.w3.org/2000/svg">
<path d="M0.746216 77.0418C55.7047 77.0418 53.4462 40.8783 95.6061 40.8783C137.766 40.8783 155.835 181.623 191.219 181.623C226.603 181.623 244.672 117.115 274.786 117.115C304.9 117.115 304.147 66.7792 352.33 66.7792C400.513 66.7792 409.547 77.0418 448.696 77.0418C487.844 77.0418 487.844 111.739 526.24 111.739C564.636 111.739 560.119 157.188 609.807 157.188C659.496 157.188 664.766 111.739 693.374 111.739C721.983 111.739 729.511 1.78265 781.458 1.78265C833.405 1.78265 818.348 167.451 871.801 167.451C925.254 167.451 907.185 77.0418 975.695 77.0418" stroke="#1FCB4F" stroke-width="1.66528"/>
</svg>
