<svg width="255" height="161" viewBox="0 0 255 161" fill="none" xmlns="http://www.w3.org/2000/svg">
<g opacity="0.3">
<rect x="1.5" y="0.5" width="253" height="159" stroke="#6F6AF8" stroke-dasharray="2 2"/>
<rect x="172.172" y="0.5" width="82.3281" height="159" stroke="#6F6AF8" stroke-dasharray="2 2"/>
<rect x="1.5" y="0.5" width="82.3281" height="159" stroke="#6F6AF8" stroke-dasharray="2 2"/>
<rect x="1.5" y="51.3527" width="253" height="57.2946" stroke="#6F6AF8" stroke-dasharray="2 2"/>
</g>
<path opacity="0.2" d="M5.53401 138.773C4.67039 143.242 2.55452 153.744 1 160H253.933V29.8477L233.206 21.4688L217.013 29.8477L211.831 17L204.059 41.0195L193.695 29.8477L177.179 55.543L162.605 48.8398L145.44 71.1836L139.287 66.1563L135.401 86.2656H127.952L115.646 116.43L106.472 101.906L94.271 116.43L82.6121 77.3281H78.402L70.9532 86.2656L68.0385 77.3281L61.5614 86.2656L56.3796 66.1563H45.0446L33.0619 101.906L29.4995 91.293L23.3462 97.4375L17.5167 130.953L5.53401 138.773Z" fill="url(#paint0_linear_4712_996)"/>
<path d="M1 160C2.55452 153.744 4.67039 143.242 5.53401 138.773L17.5167 130.953L23.3462 97.4375L29.4995 91.293L33.0619 101.906L45.0446 66.1563H56.3796L61.5614 86.2656L68.0385 77.3281L70.9532 86.2656L78.402 77.3281H82.6121C87.1652 92.5982 89.7179 101.16 94.271 116.43L106.472 101.906L115.646 116.43L127.952 86.2656H135.401L139.287 66.1563L145.44 71.1836L162.605 48.8398L177.179 55.543L193.695 29.8477L204.059 41.0195L211.831 17L217.013 29.8477L233.206 21.4688L253.933 29.8477" stroke="#6425FE" stroke-opacity="0.5" stroke-width="2"/>
<defs>
<linearGradient id="paint0_linear_4712_996" x1="127.466" y1="17" x2="127.466" y2="160" gradientUnits="userSpaceOnUse">
<stop stop-color="#6425FE" stop-opacity="0.68"/>
<stop offset="1" stop-color="#6425FE" stop-opacity="0"/>
</linearGradient>
</defs>
</svg>
